<svg width="51" height="50" viewBox="0 0 51 50" fill="none" xmlns="http://www.w3.org/2000/svg">
<rect x="0.969238" width="49.9615" height="50" rx="10" fill="#C4C4C4" fill-opacity="0.1"/>
<path d="M37.1914 22.5C37.1914 31.25 25.95 38.75 25.95 38.75C25.95 38.75 14.7087 31.25 14.7087 22.5C14.7087 19.5163 15.893 16.6548 18.0012 14.545C20.1094 12.4353 22.9686 11.25 25.95 11.25C28.9314 11.25 31.7907 12.4353 33.8989 14.545C36.007 16.6548 37.1914 19.5163 37.1914 22.5Z" stroke="#17C2EC" stroke-width="2" stroke-linecap="round" stroke-linejoin="round"/>
<path d="M25.95 26.25C28.0195 26.25 29.6971 24.5711 29.6971 22.5C29.6971 20.4289 28.0195 18.75 25.95 18.75C23.8805 18.75 22.2029 20.4289 22.2029 22.5C22.2029 24.5711 23.8805 26.25 25.95 26.25Z" stroke="#17C2EC" stroke-width="2" stroke-linecap="round" stroke-linejoin="round"/>
</svg>
